<?xml version="1.0"?>
<svg xmlns="http://www.w3.org/2000/svg" viewBox="0 0 64 64" width="512" height="512"><path d="m11 32c0-1.791 2.2-3.268 2.643-4.92.457-1.709-.7-4.087.168-5.583.878-1.517 3.523-1.7 4.754-2.932s1.415-3.876 2.933-4.754c1.5-.866 3.874.289 5.582-.168 1.652-.443 3.129-2.643 4.92-2.643s3.268 2.2 4.92 2.643c1.709.457 4.087-.7 5.583.168 1.517.878 1.7 3.523 2.932 4.754s3.876 1.415 4.754 2.933c.866 1.5-.289 3.874.168 5.582.443 1.652 2.643 3.129 2.643 4.92s-2.2 3.268-2.643 4.92c-.457 1.709.7 4.087-.168 5.583-.878 1.517-3.523 1.7-4.754 2.932s-1.415 3.876-2.935 4.754c-1.5.866-3.874-.289-5.582.168-1.65.443-3.127 2.643-4.918 2.643s-3.268-2.2-4.92-2.643c-1.709-.457-4.087.7-5.583-.168-1.517-.878-1.7-3.523-2.932-4.754s-3.876-1.415-4.754-2.935c-.866-1.5.289-3.874-.168-5.582-.443-1.65-2.643-3.127-2.643-4.918z" fill="#fff69a"/><path d="m7 17a1 1 0 0 1 -1-1 3 3 0 0 0 -3-3 1 1 0 0 1 0-2 3 3 0 0 0 3-3 1 1 0 0 1 2 0 3 3 0 0 0 3 3 1 1 0 0 1 0 2 3 3 0 0 0 -3 3 1 1 0 0 1 -1 1zm-1-5a5.043 5.043 0 0 1 1 1 5.043 5.043 0 0 1 1-1 5.043 5.043 0 0 1 -1-1 5.043 5.043 0 0 1 -1 1z" fill="#fcf05a"/><path d="m16 2h2v2h-2z" fill="#32b1cc"/><path d="m16 6h2v2h-2z" fill="#32b1cc"/><path d="m14 4h2v2h-2z" fill="#32b1cc"/><path d="m18 4h2v2h-2z" fill="#32b1cc"/><path d="m57 57a1 1 0 0 1 -1-1 3 3 0 0 0 -3-3 1 1 0 0 1 0-2 3 3 0 0 0 3-3 1 1 0 0 1 2 0 3 3 0 0 0 3 3 1 1 0 0 1 0 2 3 3 0 0 0 -3 3 1 1 0 0 1 -1 1zm-1-5a5.043 5.043 0 0 1 1 1 5.043 5.043 0 0 1 1-1 5.043 5.043 0 0 1 -1-1 5.043 5.043 0 0 1 -1 1z" fill="#fcf05a"/><g fill="#32b1cc"><path d="m46 60h2v2h-2z"/><path d="m46 56h2v2h-2z"/><path d="m48 58h2v2h-2z"/><path d="m44 58h2v2h-2z"/><path d="m8 52h2v2h-2z"/><path d="m12 54h2v2h-2z"/><path d="m50 8h2v2h-2z"/><path d="m54 10h2v2h-2z"/></g><circle cx="32" cy="32" fill="#fdbd40" r="15"/><circle cx="24.5" cy="25.5" fill="#fff69a" r="1.5"/><path d="m30 23h-2a1 1 0 0 1 0-2h2a1 1 0 0 1 0 2z" fill="#fcf05a"/><path d="m33 26h-2a1 1 0 0 1 0-2h2a1 1 0 0 1 0 2z" fill="#fcf05a"/><circle cx="5.5" cy="38.5" fill="#fdbd40" r="1.5"/><circle cx="58.5" cy="23.5" fill="#fdbd40" r="2.5"/></svg>
